<?xml version="1.0" standalone="no"?>
<!DOCTYPE svg PUBLIC "-//W3C//DTD SVG 20010904//EN"
 "http://www.w3.org/TR/2001/REC-SVG-20010904/DTD/svg10.dtd">
<svg version="1.0" xmlns="http://www.w3.org/2000/svg"
 width="875.000000pt" height="875.000000pt" viewBox="0 0 875.000000 875.000000"
 preserveAspectRatio="xMidYMid meet">

<g transform="translate(0.000000,875.000000) scale(0.100000,-0.100000)"
fill="#000000" stroke="none">
<path d="M4110 8662 c-39 -19 -48 -48 -49 -158 -2 -118 40 -199 180 -355 l69
-77 0 -248 0 -249 -82 -60 c-118 -86 -147 -113 -170 -158 -48 -95 -4 -181 156
-307 l95 -75 0 -237 1 -236 -76 -42 c-84 -46 -157 -108 -180 -153 -21 -40 -20
-100 3 -139 12 -21 51 -52 103 -85 133 -82 142 -109 49 -143 -106 -38 -176
-136 -151 -210 l10 -27 -91 -13 c-359 -48 -673 -203 -907 -446 -577 -600 -392
-1502 388 -1897 104 -53 213 -95 300 -117 l42 -11 0 -89 c0 -54 4 -90 11 -92
7 -2 7 -67 -2 -225 -14 -271 0 -413 39 -389 24 15 34 172 23 363 -16 270 -17
253 20 253 l32 0 -6 -98 c-24 -363 -17 -612 18 -612 18 0 24 19 35 121 7 61 7
152 0 282 -5 106 -10 218 -10 250 0 57 0 57 30 57 l31 0 -8 -142 c-11 -194 -9
-606 3 -642 6 -16 15 -31 21 -33 38 -13 47 333 19 755 l-4 62 34 0 34 0 -7
-152 c-10 -201 -10 -700 0 -760 10 -61 33 -64 43 -6 20 118 20 431 0 811 l-6
107 36 0 35 0 -8 -132 c-10 -181 -10 -872 0 -931 12 -67 33 -62 44 11 10 70
10 702 0 904 l-8 148 36 0 35 0 -6 -117 c-21 -474 -21 -953 1 -1085 11 -63 32
-47 42 29 10 85 10 563 0 911 l-7 262 34 0 33 0 -3 -67 c-24 -444 -23 -919 2
-1020 9 -36 28 -22 37 28 12 58 14 479 4 801 l-8 258 32 0 31 0 -9 -263 c-4
-144 -8 -320 -8 -392 1 -307 40 -414 66 -180 11 106 9 280 -7 682 l-7 153 32
0 32 0 -8 -213 c-15 -391 -6 -602 27 -602 32 0 42 214 27 602 l-8 213 31 0 31
0 -8 -172 c-16 -355 -8 -542 25 -536 34 7 43 170 29 511 l-9 197 32 0 33 0 -6
-62 c-24 -244 -17 -522 13 -552 40 -40 53 168 32 493 -6 88 -5 114 5 118 9 4
13 31 13 93 l0 87 113 36 c367 118 675 371 830 682 85 170 119 315 119 500 1
317 -118 592 -357 830 -237 237 -562 389 -916 430 l-56 6 5 44 c2 25 -1 58 -8
75 -18 44 -96 108 -149 124 l-45 13 3 45 c2 36 -3 51 -23 75 -26 31 -26 33
-26 199 l1 169 61 35 c177 102 241 237 175 373 -26 52 -123 157 -199 214 l-37
28 -1 200 0 201 73 74 c183 188 179 360 -15 589 l-58 68 -2 219 c-3 219 -3
219 -25 222 l-23 3 0 -193 -1 -193 -30 35 c-51 60 -71 131 -68 240 2 53 -1
101 -5 108 -10 17 -55 15 -96 -6z m74 -85 c-5 -63 -3 -97 10 -142 18 -59 68
-148 99 -174 13 -10 17 -30 17 -79 l0 -66 -41 39 c-99 97 -176 225 -179 300
-4 81 1 160 9 173 7 12 46 26 84 31 4 1 4 -36 1 -82z m239 -464 c30 -38 67
-93 83 -123 25 -48 29 -66 29 -140 0 -74 -4 -93 -29 -143 -15 -32 -53 -84 -85
-115 -56 -57 -56 -57 -59 -29 -2 18 7 45 26 75 44 70 55 114 50 201 -4 64 -10
88 -41 146 -31 59 -37 79 -37 132 0 35 2 63 5 63 2 0 29 -30 58 -67z m-6 -266
c6 -57 -14 -146 -41 -182 -14 -18 -15 -3 -15 160 l1 180 25 -53 c13 -29 27
-76 30 -105z m-107 -326 c0 -12 -20 -34 -50 -56 -132 -97 -133 -198 -5 -313
55 -48 56 -51 53 -97 l-3 -48 -81 66 c-218 176 -215 254 11 416 39 28 71 50
73 51 1 0 2 -9 2 -19z m0 -223 l0 -162 -55 54 c-65 65 -85 112 -65 160 12 29
94 110 111 110 5 0 9 -73 9 -162z m166 -332 c144 -142 161 -252 57 -367 -35
-39 -145 -119 -165 -119 -20 0 -5 27 27 48 77 53 120 148 103 227 -12 51 -50
117 -100 170 -33 37 -38 49 -38 89 0 45 1 46 21 35 12 -6 54 -44 95 -83z m-21
-163 c27 -55 30 -114 10 -154 -18 -36 -83 -109 -97 -109 -4 0 -8 87 -8 193 l1
192 38 -43 c21 -23 47 -59 56 -79z m-153 -361 c-24 -8 -92 -63 -115 -94 -59
-77 -39 -142 63 -206 l59 -37 1 -72 c0 -42 -4 -73 -10 -73 -5 0 -10 13 -10 28
0 34 -31 65 -117 116 -34 20 -73 50 -87 67 -47 55 -27 132 50 195 59 49 168
106 173 92 2 -7 -1 -14 -7 -16z m8 -167 c0 -74 -3 -135 -8 -135 -12 0 -53 29
-89 63 -39 36 -43 77 -13 122 19 29 86 85 102 85 4 0 8 -61 8 -135z m80 -266
c0 -25 -11 -49 -21 -49 -5 0 -9 24 -9 53 1 48 2 50 15 33 8 -11 15 -28 15 -37z
m-123 -90 c9 -9 27 -9 73 1 47 10 70 10 99 2 90 -28 159 -110 147 -176 l-6
-31 -248 0 -247 0 -3 37 c-5 65 51 136 130 165 43 15 42 15 55 2z m-68 -291
c-106 -134 -180 -366 -226 -708 -23 -170 -26 -762 -5 -930 41 -321 125 -607
213 -719 34 -43 -1 -39 -39 5 -94 109 -176 383 -218 734 -25 203 -25 648 -1
850 52 428 157 725 282 801 16 11 31 19 33 19 1 0 -16 -23 -39 -52z m188 36
c116 -56 227 -349 278 -739 79 -608 -10 -1364 -193 -1627 l-38 -53 -93 -3
c-90 -3 -95 -2 -122 24 -91 87 -182 389 -226 744 -24 201 -24 656 0 858 51
419 157 718 282 793 37 23 67 24 112 3z m118 -40 c250 -257 341 -1320 170
-1989 -56 -217 -144 -395 -197 -395 l-21 0 20 23 c88 96 171 364 215 685 19
144 22 212 22 487 0 243 -4 352 -17 454 -47 365 -128 623 -234 742 -35 38 -39
46 -21 41 12 -3 41 -25 63 -48z m-384 -6 c-101 -137 -174 -368 -218 -698 -23
-171 -26 -751 -5 -925 40 -326 121 -598 218 -732 l16 -23 -64 0 c-54 0 -76 6
-144 39 -379 184 -624 638 -624 1154 0 386 119 713 348 958 128 136 264 220
427 264 87 24 90 21 46 -37z m524 22 c642 -221 927 -1174 563 -1883 -116 -226
-288 -399 -484 -488 -49 -23 -78 -29 -130 -29 l-66 0 26 31 c88 104 172 390
213 719 22 182 25 674 5 855 -18 157 -55 358 -87 470 -35 119 -103 262 -151
315 l-39 43 48 -7 c26 -4 72 -16 102 -26z m-820 -28 c-103 -55 -162 -98 -240
-177 -354 -353 -478 -963 -304 -1490 100 -300 285 -536 534 -678 l50 -29 -48
6 c-67 8 -212 58 -321 111 -327 158 -576 426 -681 734 -38 112 -55 221 -55
351 0 185 35 331 120 500 163 323 504 584 895 686 123 32 131 30 50 -14z
m1139 -9 c242 -77 420 -184 592 -357 121 -121 175 -194 239 -325 284 -573 24
-1241 -604 -1555 -105 -53 -310 -126 -355 -126 -25 0 -16 9 63 58 280 173 477
491 543 877 17 103 19 147 15 310 -6 202 -17 270 -69 435 -99 310 -299 564
-547 693 -75 39 -75 39 -31 32 25 -4 94 -23 154 -42z m-1159 -44 c-251 -164
-447 -489 -510 -846 -59 -340 -1 -716 157 -1001 84 -153 220 -307 344 -389 30
-20 54 -38 54 -40 0 -11 -106 56 -172 108 -174 139 -319 369 -392 621 -44 152
-59 292 -53 483 8 230 44 392 132 582 88 190 254 383 415 481 108 67 126 67
25 1z m1194 -81 c179 -148 323 -387 391 -652 157 -614 -80 -1280 -546 -1532
-86 -47 -81 -40 20 26 255 166 445 486 508 855 27 157 22 449 -10 590 -83 366
-251 624 -538 823 -11 7 9 -2 43 -20 34 -17 94 -58 132 -90z m-161 -2843 c0
-55 -3 -111 -7 -125 -13 -46 -21 89 -13 231 6 128 7 131 13 64 4 -38 7 -115 7
-170z m-989 23 c1 -75 -3 -139 -8 -142 -12 -8 -17 83 -12 215 5 148 19 96 20
-73z m99 -73 c1 -77 -3 -149 -7 -160 -13 -31 -18 99 -12 260 7 176 19 112 19
-100z m790 0 c1 -77 -3 -149 -7 -160 -13 -31 -18 99 -12 260 7 176 19 112 19
-100z m-690 -90 c0 -71 -3 -143 -7 -160 -13 -56 -21 126 -13 302 7 165 7 166
13 78 4 -49 7 -148 7 -220z m96 -232 l-8 -88 -8 65 c-4 36 -4 169 0 295 l7
230 9 -207 c4 -114 5 -246 0 -295z m496 270 c0 -112 -4 -194 -10 -198 -11 -7
-16 110 -12 290 5 201 22 131 22 -92z m-396 -373 l-8 -115 -9 88 c-6 51 -6
189 -1 335 l8 247 9 -220 c5 -121 5 -272 1 -335z m298 136 c-3 -63 -7 -94 -13
-85 -11 17 -12 407 -1 464 9 49 19 -229 14 -379z m-100 -121 c-4 -81 -9 -119
-13 -100 -9 42 -10 380 -1 511 l7 109 6 -195 c4 -107 4 -253 1 -325z m-99
-100 c-5 -124 -9 -149 -14 -110 -10 68 -11 323 -1 535 l7 175 7 -220 c4 -121
4 -292 1 -380z"/>
</g>
</svg>
