<?xml version="1.0" standalone="no"?>
<!DOCTYPE svg PUBLIC "-//W3C//DTD SVG 20010904//EN"
 "http://www.w3.org/TR/2001/REC-SVG-20010904/DTD/svg10.dtd">
<svg version="1.0" xmlns="http://www.w3.org/2000/svg"
 width="875.000000pt" height="875.000000pt" viewBox="0 0 875.000000 875.000000"
 preserveAspectRatio="xMidYMid meet">

<g transform="translate(0.000000,875.000000) scale(0.100000,-0.100000)"
fill="#000000" stroke="none">
<path d="M3335 7300 c-585 -43 -1116 -244 -1545 -586 -120 -95 -349 -329 -450
-459 -106 -136 -240 -337 -287 -433 -23 -46 -38 -92 -41 -126 -4 -48 -2 -55
23 -74 33 -26 110 -29 165 -7 159 63 434 146 444 134 2 -2 0 -33 -5 -69 -17
-131 -22 -395 -10 -540 24 -297 59 -439 141 -562 57 -87 105 -135 184 -182 89
-53 131 -63 386 -91 700 -77 1209 -161 1640 -271 462 -118 762 -209 995 -302
645 -256 1146 -329 1394 -202 97 49 222 196 293 343 20 44 25 48 50 43 14 -3
86 -10 159 -16 170 -15 326 -1 505 45 168 44 371 85 418 85 20 0 36 4 36 9 0
5 -22 43 -49 83 -113 172 -238 409 -311 592 -85 215 -265 531 -437 766 -424
581 -1016 1072 -1663 1378 -373 176 -860 336 -1210 397 -242 42 -601 62 -825
45z m284 -81 c91 -7 156 -16 145 -19 -10 -4 -59 -15 -109 -24 -294 -55 -651
-235 -925 -464 -108 -91 -308 -293 -392 -397 -31 -38 -92 -121 -137 -183 -45
-63 -81 -111 -81 -108 0 16 96 218 141 299 120 212 236 364 399 520 149 143
311 250 483 318 74 30 268 79 292 75 11 -3 94 -10 184 -17z m991 -174 c90 -25
165 -47 166 -48 1 -1 -59 -3 -134 -3 -466 -5 -918 -155 -1302 -432 -132 -96
-361 -323 -465 -462 -81 -109 -85 -106 -30 22 185 433 608 769 1136 903 143
37 404 76 449 69 8 -2 89 -24 180 -49z m-2164 -70 c-353 -236 -658 -594 -853
-1000 -31 -64 -33 -67 -28 -30 21 139 148 423 263 585 79 112 219 256 316 325
57 41 359 184 390 185 5 0 -35 -29 -88 -65z m2921 -253 c34 -6 72 -16 85 -23
41 -21 258 -150 258 -153 0 -2 -24 3 -52 11 -247 64 -591 75 -863 28 -430 -74
-815 -277 -1147 -606 -53 -52 -92 -86 -86 -75 84 161 333 426 512 545 215 143
421 226 676 272 147 26 460 26 617 1z m622 -536 c52 -8 140 -25 197 -37 l102
-21 98 -85 c55 -47 110 -96 124 -109 l25 -25 -55 22 c-168 67 -388 119 -584
138 -518 51 -1056 -87 -1558 -397 -64 -39 -35 0 61 84 275 241 611 389 1001
440 131 17 455 11 589 -10z m-3281 -376 c443 -40 1010 -228 1517 -502 342
-185 608 -365 974 -657 405 -323 845 -559 1268 -681 l73 -21 -29 -57 c-62
-122 -162 -226 -251 -258 -69 -26 -290 -30 -424 -9 -232 36 -465 105 -804 236
-296 116 -901 291 -1287 374 -315 67 -850 148 -1355 205 -257 28 -279 33 -337
62 -111 55 -202 175 -238 315 -32 123 -48 295 -49 518 0 178 16 430 28 442 3
4 255 32 321 36 114 8 497 6 593 -3z m3607 -234 c209 -38 389 -95 570 -180
l90 -43 100 -138 c129 -178 127 -174 55 -121 -178 131 -470 258 -715 310 -347
75 -716 65 -1085 -29 -97 -25 -253 -76 -349 -114 -29 -12 -55 -20 -58 -18 -6
7 176 122 262 164 168 85 382 151 571 178 129 18 435 13 559 -9z m175 -711
c246 -35 523 -122 763 -239 l112 -55 61 -103 c34 -57 72 -121 85 -142 l23 -40
-44 28 c-77 46 -292 153 -416 205 -305 128 -602 208 -934 252 -128 18 -518 16
-633 -3 -48 -8 -84 -11 -80 -7 29 27 351 102 510 119 122 12 415 5 553 -15z"/>
</g>
</svg>
